<svg width="59" height="51" viewBox="0 0 59 51" fill="none" xmlns="http://www.w3.org/2000/svg">
<path d="M0 9.16667C0 4.10406 4.10406 0 9.16667 0H57.1667C58.1792 0 59 0.820811 59 1.83333V1.83333C59 6.89594 54.8959 11 49.8333 11H1.83333C0.820812 11 0 10.1792 0 9.16667V9.16667Z" fill="#10152E"/>
<path d="M0 29.1667C0 24.1041 4.10406 20 9.16667 20H57.1667C58.1792 20 59 20.8208 59 21.8333V21.8333C59 26.8959 54.8959 31 49.8333 31H1.83333C0.820812 31 0 30.1792 0 29.1667V29.1667Z" fill="#10152E"/>
<path d="M0 49.1667C0 44.1041 4.10406 40 9.16667 40H57.1667C58.1792 40 59 40.8208 59 41.8333V41.8333C59 46.8959 54.8959 51 49.8333 51H1.83333C0.820812 51 0 50.1792 0 49.1667V49.1667Z" fill="#10152E"/>
</svg>
