<svg width="40" height="40" viewBox="0 0 40 40" fill="none" xmlns="http://www.w3.org/2000/svg">
<path d="M34.1508 5.86654C26.3451 -1.94871 13.6819 -1.95648 5.86657 5.84908C-1.94869 13.6548 -1.95656 26.3181 5.84921 34.1335C13.6548 41.9487 26.3182 41.9565 34.1335 34.1508C41.9487 26.3453 41.9565 13.6818 34.1508 5.86654ZM22.7925 32.6909C22.7925 32.9995 22.5424 33.2494 22.234 33.2494H17.7661C17.4577 33.2494 17.2076 32.9995 17.2076 32.6909V16.1048C17.2076 15.7962 17.4577 15.5464 17.7661 15.5464H22.234C22.5424 15.5464 22.7925 15.7962 22.7925 16.1048V32.6909ZM20 13.2285C18.2141 13.2285 16.7609 11.7756 16.7609 9.98953C16.7609 8.20364 18.214 6.75042 20 6.75042C21.7861 6.75042 23.2391 8.20354 23.2391 9.98953C23.2391 11.7756 21.7859 13.2285 20 13.2285Z" fill="url(#paint0_linear_405_175)"/>
<defs>
<linearGradient id="paint0_linear_405_175" x1="20" y1="0" x2="20" y2="40" gradientUnits="userSpaceOnUse">
<stop stop-color="#117FFF"/>
<stop offset="1" stop-color="#74C5FF"/>
</linearGradient>
</defs>
</svg>
